<svg xmlns="http://www.w3.org/2000/svg" width="1921" height="974" viewBox="0 0 1921 974">
  <g id="Path_1" data-name="Path 1" fill="#c1f2eb">
    <path d="M 0.5 971.2339477539063 L 0.5 0.5 L 1920.5 0.5 L 1920.5 102.4822463989258 C 1918.548950195313 104.1689682006836 1900.28271484375 119.9254455566406 1871.5087890625 143.6130981445313 C 1853.698608398438 158.2752380371094 1835.407104492188 173.0619049072266 1817.142578125 187.5623779296875 C 1794.312133789063 205.6876220703125 1771.4599609375 223.4142913818359 1749.220703125 240.249755859375 C 1692.614013671875 283.1021423339844 1639.58837890625 320.5104675292969 1591.616455078125 351.4356994628906 C 1563.136474609375 369.7954711914063 1536.14501953125 386.0442810058594 1511.391479492188 399.730712890625 C 1484.168579101563 414.7823791503906 1458.98193359375 427.105224609375 1436.53125 436.3566589355469 C 1417.150024414063 444.3433227539063 1398.088623046875 451.6873779296875 1379.876708984375 458.1849975585938 C 1362.257202148438 464.47119140625 1344.823120117188 470.182373046875 1328.058837890625 475.1597595214844 C 1311.939331054688 479.9457092285156 1295.857666015625 484.2254638671875 1280.2607421875 487.8800048828125 C 1265.385009765625 491.36572265625 1250.380737304688 494.4157104492188 1235.664794921875 496.9454650878906 C 1208.80029296875 501.5633239746094 1181.697143554688 504.6909484863281 1152.806640625 506.5066528320313 C 1129.435913085938 507.9757080078125 1104.803588867188 508.6309509277344 1072.937622070313 508.6311950683594 C 1058.41357421875 508.6314392089844 1043.970458984375 508.5042724609375 1028.679565429688 508.3697509765625 C 1013.003784179688 508.2319030761719 996.7943115234375 508.0895385742188 980.0842895507813 508.0895385742188 C 876.5440673828125 508.0895385742188 755.4985961914063 513.7940673828125 572.451904296875 555.1785888671875 C 544.2190551757813 561.5616455078125 516.355712890625 568.953125 489.6354675292969 577.1478271484375 C 464.076416015625 584.9866943359375 438.884033203125 593.7685546875 414.7585754394531 603.249755859375 C 391.7542724609375 612.2902221679688 369.1128540039063 622.2052612304688 347.4631042480469 632.7188110351563 C 326.8949890136719 642.7071533203125 306.6840515136719 653.4971313476563 287.3909606933594 664.789306640625 C 220.64453125 703.856201171875 161.6938171386719 750.6168823242188 112.1769027709961 803.7723999023438 C 92.72238159179688 824.6561889648438 74.69547271728516 846.5895385742188 58.5966682434082 868.9633178710938 C 45.71642684936523 886.8635864257813 34.03452301025391 905.0845336914063 23.8752384185791 923.1199951171875 C 14.83476161956787 939.1690673828125 8.698333740234375 952.0983276367188 5.142619132995605 960.1183471679688 C 2.913729667663574 965.1454467773438 1.391261100769043 968.9276733398438 0.5 971.2339477539063 Z" stroke="none"/>
    <path d="M 1 1 L 1 968.6061401367188 C 1.89697265625 966.3773193359375 3.116943359375 963.453369140625 4.6854248046875 959.9157104492188 C 8.2457275390625 951.8857421875 14.3895263671875 938.9409790039063 23.4398193359375 922.87451171875 C 33.608154296875 904.8231201171875 45.300048828125 886.58642578125 58.190673828125 868.6712036132813 C 74.3018798828125 846.2804565429688 92.3424072265625 824.3306884765625 111.8109130859375 803.431396484375 C 161.3612060546875 750.240478515625 220.3497314453125 703.4492797851563 287.1383056640625 664.3578491210938 C 306.4423828125 653.05908203125 326.6650390625 642.2628173828125 347.2445068359375 632.26904296875 C 368.906005859375 621.749755859375 391.559326171875 611.8297729492188 414.575439453125 602.7845458984375 C 438.712890625 593.298583984375 463.9173583984375 584.5123901367188 489.48876953125 576.6700439453125 C 516.220703125 568.471435546875 544.096435546875 561.07666015625 572.3414306640625 554.690673828125 C 755.4354248046875 513.2957153320313 876.5147705078125 507.5895385742188 980.0842895507813 507.5895385742188 C 996.8009643554688 507.5895385742188 1013.015686035156 507.7321472167969 1028.696411132813 507.8699951171875 C 1043.98193359375 508.0042724609375 1058.419677734375 508.1311950683594 1072.937622070313 508.1311950683594 C 1104.7919921875 508.1311950683594 1129.414794921875 507.4764404296875 1152.775268554688 506.0080871582031 C 1181.647705078125 504.1935729980469 1208.7333984375 501.06787109375 1235.580322265625 496.4528503417969 C 1250.2861328125 493.9249877929688 1265.28076171875 490.8768920898438 1280.146728515625 487.3935852050781 C 1295.734375 483.740966796875 1311.80615234375 479.4638061523438 1327.916748046875 474.6804809570313 C 1344.67236328125 469.7057189941406 1362.09765625 463.9973754882813 1379.708740234375 457.7140502929688 C 1397.9130859375 451.2192993164063 1416.966918945313 443.8781127929688 1436.340698242188 435.89453125 C 1458.773559570313 426.6502685546875 1483.9423828125 414.336181640625 1511.148071289063 399.2938232421875 C 1535.891357421875 385.6133422851563 1562.87255859375 369.3707275390625 1591.342651367188 351.0173950195313 C 1639.303344726563 320.0993041992188 1692.31787109375 282.6990356445313 1748.913818359375 239.85498046875 C 1771.150024414063 223.0219116210938 1793.9990234375 205.2978515625 1816.826171875 187.1749877929688 C 1835.088623046875 172.6764526367188 1853.377807617188 157.8914184570313 1871.186157226563 143.231201171875 C 1899.252075195313 120.1265258789063 1917.320068359375 104.5680541992188 1920 102.2535400390625 L 1920 1 L 1 1 M 0 0 L 1921 0 L 1921 102.7109375 C 1921 102.7109375 1625.16650390625 359.16455078125 1436.7216796875 436.8190307617188 C 1278.41357421875 502.0548400878906 1180.365600585938 509.1312255859375 1072.9375 509.1312255859375 C 1043.197265625 509.1312255859375 1012.744506835938 508.5894470214844 980.084228515625 508.5894470214844 C 879.4967041015625 508.5894470214844 758.0638427734375 513.7266845703125 572.5618896484375 555.6661987304688 C 109.259765625 660.412841796875 0 974 0 974 L 0 0 Z" stroke="none" fill="#c1f2eb"/>
  </g>
</svg>
